<svg width="55" height="50" viewBox="0 0 55 50" fill="none" xmlns="http://www.w3.org/2000/svg">
<mask id="path-1-inside-1_12_906" fill="white">
<path fill-rule="evenodd" clip-rule="evenodd" d="M15.2033 49.9741C14.9826 49.9589 14.7611 49.9466 14.5399 49.9268C13.3022 49.811 12.1673 49.4095 11.1598 48.6831C9.42128 47.4298 8.30973 45.7632 7.86652 43.666C7.701 42.8779 7.65473 42.0826 7.70523 41.2797C7.76253 40.3378 7.95098 39.4242 8.25148 38.5304C8.73152 37.1042 9.4556 35.8103 10.372 34.6174C11.0626 33.7186 11.8444 32.9043 12.7059 32.1657C13.5124 31.4739 14.2441 30.7099 14.93 29.9011C15.7929 28.8814 16.5734 27.8009 17.3447 26.7127C18.0263 25.7506 18.6961 24.7828 19.4198 23.8527C19.9639 23.1513 20.5377 22.4756 21.1769 21.8586C21.977 21.0874 22.8598 20.4345 23.9005 20.0111C24.681 19.6929 25.4921 19.5247 26.3363 19.507C27.2905 19.485 28.2331 19.5792 29.161 19.8049C30.5811 20.1518 31.8116 20.8398 32.871 21.8404C33.5955 22.5279 34.2088 23.3059 34.7792 24.1201C35.384 24.9834 35.9397 25.878 36.5126 26.7625C37.1586 27.7585 37.8258 28.7384 38.5711 29.6655C39.3134 30.5893 40.1326 31.4416 41.0269 32.2212C42.1088 33.1644 43.0689 34.2145 43.8867 35.393C44.5841 36.4042 45.1523 37.4792 45.5493 38.6413C45.8583 39.5464 46.0527 40.4719 46.1019 41.4286C46.1779 42.8814 45.9262 44.2704 45.264 45.577C44.6512 46.788 43.7641 47.7605 42.6499 48.5328C41.8307 49.1004 40.9475 49.5318 39.9743 49.7718C39.63 49.858 39.2799 49.9197 38.9263 49.9535C38.8771 49.9582 38.8296 49.9675 38.782 49.9746C38.7358 50.0008 38.6848 49.9814 38.636 49.9873C38.5957 49.9928 38.5532 49.9746 38.515 50H37.6084C37.5724 49.9738 37.5316 49.992 37.4934 49.9873H37.3024C36.5291 49.9624 35.7783 49.8018 35.03 49.6294C33.7618 49.3349 32.5191 48.9478 31.2576 48.6279C30.236 48.3697 29.2058 48.1601 28.1575 48.041C27.4309 47.9581 26.7025 47.9488 25.9764 47.9738C25.3953 47.9932 24.8185 48.0824 24.2472 48.188C23.1191 48.3993 22.0134 48.7019 20.9074 49.0023C19.7372 49.3222 18.567 49.6404 17.3693 49.8352C16.8821 49.9134 16.394 49.9806 15.8987 49.9759C15.7972 49.9746 15.6962 49.9899 15.5931 49.9873C15.4615 49.9801 15.3324 50.0037 15.2033 49.9741Z"/>
<path fill-rule="evenodd" clip-rule="evenodd" d="M37.5568 0.0209808C39.1875 0.21621 40.4333 1.04107 41.3848 2.34259C42.0371 3.23506 42.4471 4.2357 42.7014 5.30569C42.9187 6.22731 43.0006 7.16246 42.9696 8.10858C42.9123 9.847 42.5023 11.4984 41.7443 13.0653C41.2193 14.1509 40.5415 15.13 39.6773 15.9743C38.9074 16.7248 38.0369 17.3244 37.0208 17.6984C36.3069 17.9609 35.5731 18.0906 34.8125 18.0454C33.4959 17.9697 32.378 17.4487 31.4386 16.5389C30.6377 15.7622 30.0918 14.8233 29.7142 13.7837C29.4502 13.0569 29.2851 12.3073 29.1993 11.5412C29.1399 11.0159 29.1161 10.4902 29.1331 9.96416C29.1722 8.72303 29.3958 7.51447 29.8012 6.34106C30.2315 5.09193 30.841 3.94048 31.6733 2.91063C32.3736 2.04436 33.192 1.31208 34.1741 0.771194C34.8957 0.373132 35.6643 0.115788 36.4869 0.0232414C36.5119 0.00929613 36.5391 0.0152125 36.565 0.0135222H36.643C36.6808 0.00887395 36.7211 0.0270445 36.7542 0H37.2886C37.3234 0.0274675 37.362 0.0092966 37.3998 0.0135222H37.4783C37.5034 0.0130997 37.5314 0.0061909 37.5568 0.0209808Z"/>
<path fill-rule="evenodd" clip-rule="evenodd" d="M0.0492487 19.191C0.0747154 18.6954 0.164271 18.209 0.294995 17.7306C0.547956 16.8005 0.962629 15.9533 1.60821 15.2273C2.32975 14.4172 3.22196 13.8932 4.29026 13.682C5.15781 13.5112 6.01387 13.5843 6.85551 13.8425C7.8228 14.14 8.67843 14.6458 9.43902 15.3042C10.6206 16.3239 11.4678 17.5785 12.0544 19.014C12.3612 19.7657 12.5734 20.5442 12.691 21.347C12.7483 21.7366 12.7755 22.1283 12.7835 22.5221C12.7976 23.2696 12.722 24.0049 12.5361 24.7284C12.2878 25.6935 11.8697 26.5716 11.2033 27.3238C10.4385 28.1863 9.48527 28.7234 8.34221 28.908C7.50352 29.0437 6.67924 28.9524 5.87247 28.693C4.78761 28.3422 3.85767 27.7401 3.03895 26.9604C2.24015 26.2019 1.60524 25.3213 1.11074 24.3417C0.625619 23.3808 0.291155 22.3679 0.129877 21.3026C0.101865 21.1141 0.078945 20.9256 0.0530545 20.738C0.0331064 20.6518 0.0407459 20.5643 0.0203729 20.4786C0.0106109 20.4426 0.0161287 20.4088 0.0144308 20.3721C0.00721544 20.3264 0.0280125 20.2778 0 20.2322V19.5417C0.0432928 19.4787 0.0220705 19.4086 0.0267395 19.341C0.0305594 19.2911 0.0178405 19.2375 0.0492487 19.191Z"/>
<path fill-rule="evenodd" clip-rule="evenodd" d="M11.4981 8.11354C11.5036 6.74271 11.6997 5.50624 12.1602 4.31628C12.5078 3.41663 12.9849 2.59387 13.6491 1.88563C14.3647 1.1212 15.2149 0.572673 16.2399 0.314885C17.2654 0.0554306 18.273 0.129381 19.2636 0.486444C20.1362 0.801263 20.8972 1.2982 21.5734 1.92532C22.6527 2.9247 23.4257 4.13161 23.9761 5.48416C24.3258 6.34451 24.5669 7.23361 24.7044 8.1502C24.7825 8.66996 24.8275 9.19395 24.8381 9.7217C24.8496 10.3856 24.8076 11.0473 24.6976 11.7027C24.4689 13.0722 24.002 14.3484 23.1697 15.4762C22.6519 16.176 22.0233 16.7545 21.2517 17.1712C20.3897 17.6364 19.4665 17.8308 18.4899 17.7556C17.6071 17.6884 16.7931 17.401 16.0338 16.9527C15.0431 16.3687 14.2414 15.581 13.5737 14.6543C12.7821 13.5535 12.238 12.3365 11.8938 11.0286C11.7053 10.3132 11.5848 9.58555 11.53 8.84778C11.508 8.57141 11.4888 8.29314 11.4981 8.11354Z"/>
<path fill-rule="evenodd" clip-rule="evenodd" d="M54.7614 19.9947V20.154C54.7007 21.4758 54.345 22.7203 53.7716 23.9068C53.32 24.8369 52.744 25.6841 52.0306 26.4354C51.1155 27.401 50.0536 28.1541 48.7914 28.6061C48.035 28.877 47.2562 29.0101 46.451 28.9662C45.2626 28.8994 44.2253 28.4705 43.3526 27.6638C42.6324 26.997 42.157 26.1768 41.8577 25.2535C41.5882 24.4261 41.4791 23.573 41.5067 22.7042C41.5657 20.7942 42.1722 19.0578 43.2232 17.4689C43.578 16.931 43.985 16.434 44.4413 15.9797C45.3801 15.0488 46.4536 14.3325 47.7248 13.9268C48.4476 13.6978 49.1865 13.593 49.9433 13.6517C51.0995 13.7409 52.1075 14.1762 52.9534 14.9705C53.7165 15.6872 54.1978 16.5721 54.4886 17.5659C54.649 18.1149 54.7428 18.6765 54.7619 19.2491V19.4097C54.7555 19.6036 54.7559 19.799 54.7614 19.9947Z"/>
</mask>
<path fill-rule="evenodd" clip-rule="evenodd" d="M15.2033 49.9741C14.9826 49.9589 14.7611 49.9466 14.5399 49.9268C13.3022 49.811 12.1673 49.4095 11.1598 48.6831C9.42128 47.4298 8.30973 45.7632 7.86652 43.666C7.701 42.8779 7.65473 42.0826 7.70523 41.2797C7.76253 40.3378 7.95098 39.4242 8.25148 38.5304C8.73152 37.1042 9.4556 35.8103 10.372 34.6174C11.0626 33.7186 11.8444 32.9043 12.7059 32.1657C13.5124 31.4739 14.2441 30.7099 14.93 29.9011C15.7929 28.8814 16.5734 27.8009 17.3447 26.7127C18.0263 25.7506 18.6961 24.7828 19.4198 23.8527C19.9639 23.1513 20.5377 22.4756 21.1769 21.8586C21.977 21.0874 22.8598 20.4345 23.9005 20.0111C24.681 19.6929 25.4921 19.5247 26.3363 19.507C27.2905 19.485 28.2331 19.5792 29.161 19.8049C30.5811 20.1518 31.8116 20.8398 32.871 21.8404C33.5955 22.5279 34.2088 23.3059 34.7792 24.1201C35.384 24.9834 35.9397 25.878 36.5126 26.7625C37.1586 27.7585 37.8258 28.7384 38.5711 29.6655C39.3134 30.5893 40.1326 31.4416 41.0269 32.2212C42.1088 33.1644 43.0689 34.2145 43.8867 35.393C44.5841 36.4042 45.1523 37.4792 45.5493 38.6413C45.8583 39.5464 46.0527 40.4719 46.1019 41.4286C46.1779 42.8814 45.9262 44.2704 45.264 45.577C44.6512 46.788 43.7641 47.7605 42.6499 48.5328C41.8307 49.1004 40.9475 49.5318 39.9743 49.7718C39.63 49.858 39.2799 49.9197 38.9263 49.9535C38.8771 49.9582 38.8296 49.9675 38.782 49.9746C38.7358 50.0008 38.6848 49.9814 38.636 49.9873C38.5957 49.9928 38.5532 49.9746 38.515 50H37.6084C37.5724 49.9738 37.5316 49.992 37.4934 49.9873H37.3024C36.5291 49.9624 35.7783 49.8018 35.03 49.6294C33.7618 49.3349 32.5191 48.9478 31.2576 48.6279C30.236 48.3697 29.2058 48.1601 28.1575 48.041C27.4309 47.9581 26.7025 47.9488 25.9764 47.9738C25.3953 47.9932 24.8185 48.0824 24.2472 48.188C23.1191 48.3993 22.0134 48.7019 20.9074 49.0023C19.7372 49.3222 18.567 49.6404 17.3693 49.8352C16.8821 49.9134 16.394 49.9806 15.8987 49.9759C15.7972 49.9746 15.6962 49.9899 15.5931 49.9873C15.4615 49.9801 15.3324 50.0037 15.2033 49.9741Z" stroke="#392818" stroke-width="4" mask="url(#path-1-inside-1_12_906)"/>
<path fill-rule="evenodd" clip-rule="evenodd" d="M37.5568 0.0209808C39.1875 0.21621 40.4333 1.04107 41.3848 2.34259C42.0371 3.23506 42.4471 4.2357 42.7014 5.30569C42.9187 6.22731 43.0006 7.16246 42.9696 8.10858C42.9123 9.847 42.5023 11.4984 41.7443 13.0653C41.2193 14.1509 40.5415 15.13 39.6773 15.9743C38.9074 16.7248 38.0369 17.3244 37.0208 17.6984C36.3069 17.9609 35.5731 18.0906 34.8125 18.0454C33.4959 17.9697 32.378 17.4487 31.4386 16.5389C30.6377 15.7622 30.0918 14.8233 29.7142 13.7837C29.4502 13.0569 29.2851 12.3073 29.1993 11.5412C29.1399 11.0159 29.1161 10.4902 29.1331 9.96416C29.1722 8.72303 29.3958 7.51447 29.8012 6.34106C30.2315 5.09193 30.841 3.94048 31.6733 2.91063C32.3736 2.04436 33.192 1.31208 34.1741 0.771194C34.8957 0.373132 35.6643 0.115788 36.4869 0.0232414C36.5119 0.00929613 36.5391 0.0152125 36.565 0.0135222H36.643C36.6808 0.00887395 36.7211 0.0270445 36.7542 0H37.2886C37.3234 0.0274675 37.362 0.0092966 37.3998 0.0135222H37.4783C37.5034 0.0130997 37.5314 0.0061909 37.5568 0.0209808Z" stroke="#392818" stroke-width="4" mask="url(#path-1-inside-1_12_906)"/>
<path fill-rule="evenodd" clip-rule="evenodd" d="M0.0492487 19.191C0.0747154 18.6954 0.164271 18.209 0.294995 17.7306C0.547956 16.8005 0.962629 15.9533 1.60821 15.2273C2.32975 14.4172 3.22196 13.8932 4.29026 13.682C5.15781 13.5112 6.01387 13.5843 6.85551 13.8425C7.8228 14.14 8.67843 14.6458 9.43902 15.3042C10.6206 16.3239 11.4678 17.5785 12.0544 19.014C12.3612 19.7657 12.5734 20.5442 12.691 21.347C12.7483 21.7366 12.7755 22.1283 12.7835 22.5221C12.7976 23.2696 12.722 24.0049 12.5361 24.7284C12.2878 25.6935 11.8697 26.5716 11.2033 27.3238C10.4385 28.1863 9.48527 28.7234 8.34221 28.908C7.50352 29.0437 6.67924 28.9524 5.87247 28.693C4.78761 28.3422 3.85767 27.7401 3.03895 26.9604C2.24015 26.2019 1.60524 25.3213 1.11074 24.3417C0.625619 23.3808 0.291155 22.3679 0.129877 21.3026C0.101865 21.1141 0.078945 20.9256 0.0530545 20.738C0.0331064 20.6518 0.0407459 20.5643 0.0203729 20.4786C0.0106109 20.4426 0.0161287 20.4088 0.0144308 20.3721C0.00721544 20.3264 0.0280125 20.2778 0 20.2322V19.5417C0.0432928 19.4787 0.0220705 19.4086 0.0267395 19.341C0.0305594 19.2911 0.0178405 19.2375 0.0492487 19.191Z" stroke="#392818" stroke-width="4" mask="url(#path-1-inside-1_12_906)"/>
<path fill-rule="evenodd" clip-rule="evenodd" d="M11.4981 8.11354C11.5036 6.74271 11.6997 5.50624 12.1602 4.31628C12.5078 3.41663 12.9849 2.59387 13.6491 1.88563C14.3647 1.1212 15.2149 0.572673 16.2399 0.314885C17.2654 0.0554306 18.273 0.129381 19.2636 0.486444C20.1362 0.801263 20.8972 1.2982 21.5734 1.92532C22.6527 2.9247 23.4257 4.13161 23.9761 5.48416C24.3258 6.34451 24.5669 7.23361 24.7044 8.1502C24.7825 8.66996 24.8275 9.19395 24.8381 9.7217C24.8496 10.3856 24.8076 11.0473 24.6976 11.7027C24.4689 13.0722 24.002 14.3484 23.1697 15.4762C22.6519 16.176 22.0233 16.7545 21.2517 17.1712C20.3897 17.6364 19.4665 17.8308 18.4899 17.7556C17.6071 17.6884 16.7931 17.401 16.0338 16.9527C15.0431 16.3687 14.2414 15.581 13.5737 14.6543C12.7821 13.5535 12.238 12.3365 11.8938 11.0286C11.7053 10.3132 11.5848 9.58555 11.53 8.84778C11.508 8.57141 11.4888 8.29314 11.4981 8.11354Z" stroke="#392818" stroke-width="4" mask="url(#path-1-inside-1_12_906)"/>
<path fill-rule="evenodd" clip-rule="evenodd" d="M54.7614 19.9947V20.154C54.7007 21.4758 54.345 22.7203 53.7716 23.9068C53.32 24.8369 52.744 25.6841 52.0306 26.4354C51.1155 27.401 50.0536 28.1541 48.7914 28.6061C48.035 28.877 47.2562 29.0101 46.451 28.9662C45.2626 28.8994 44.2253 28.4705 43.3526 27.6638C42.6324 26.997 42.157 26.1768 41.8577 25.2535C41.5882 24.4261 41.4791 23.573 41.5067 22.7042C41.5657 20.7942 42.1722 19.0578 43.2232 17.4689C43.578 16.931 43.985 16.434 44.4413 15.9797C45.3801 15.0488 46.4536 14.3325 47.7248 13.9268C48.4476 13.6978 49.1865 13.593 49.9433 13.6517C51.0995 13.7409 52.1075 14.1762 52.9534 14.9705C53.7165 15.6872 54.1978 16.5721 54.4886 17.5659C54.649 18.1149 54.7428 18.6765 54.7619 19.2491V19.4097C54.7555 19.6036 54.7559 19.799 54.7614 19.9947Z" stroke="#392818" stroke-width="4" mask="url(#path-1-inside-1_12_906)"/>
</svg>
