<svg width="64" height="50" viewBox="0 0 64 50" fill="none" xmlns="http://www.w3.org/2000/svg">
<mask id="path-1-inside-1_9_165" fill="white">
<path fill-rule="evenodd" clip-rule="evenodd" d="M24.8913 7.33126C21.1146 3.49217 17.0425 -0.236202 15.6893 0.0117871C14.0555 0.311204 12.2722 8.00835 11.0981 14.1779C6.93259 17.9721 4.41801 22.8934 4.41801 28.2709C4.41801 40.2716 16.9408 50 32.3884 50C47.836 50 60.3588 40.2716 60.3588 28.2709C60.3588 22.8303 57.7849 17.8567 53.5315 14.0449C52.3572 7.89829 50.5878 0.309056 48.9657 0.0117871C47.615 -0.235738 43.5556 3.47823 39.7849 7.30971C37.4289 6.80914 34.9488 6.54188 32.3884 6.54188C29.7915 6.54188 27.2773 6.81681 24.8913 7.33126Z"/>
</mask>
<path d="M24.8913 7.33126L23.4656 8.73384L24.2372 9.51825L25.3128 9.28633L24.8913 7.33126ZM15.6893 0.0117871L16.0498 1.97902L16.0498 1.97902L15.6893 0.0117871ZM11.0981 14.1779L12.4449 15.6565L12.9381 15.2072L13.0629 14.5518L11.0981 14.1779ZM53.5315 14.0449L51.567 14.4202L51.6937 15.0836L52.1967 15.5343L53.5315 14.0449ZM48.9657 0.0117871L48.6052 1.97902L48.6052 1.97902L48.9657 0.0117871ZM39.7849 7.30971L39.3692 9.26604L40.4414 9.49386L41.2103 8.71258L39.7849 7.30971ZM26.3171 5.92867C24.4143 3.99448 22.3971 2.04669 20.6609 0.601631C19.7985 -0.116124 18.9514 -0.755531 18.1879 -1.2088C17.807 -1.4349 17.3937 -1.6469 16.9711 -1.79284C16.5799 -1.92789 15.9862 -2.07593 15.3288 -1.95545L16.0498 1.97902C15.7307 2.03751 15.5602 1.95173 15.6655 1.9881C15.7393 2.01359 15.8957 2.08218 16.1459 2.23073C16.6445 2.52675 17.3052 3.01288 18.1021 3.6761C19.6843 4.993 21.5916 6.82895 23.4656 8.73384L26.3171 5.92867ZM15.3288 -1.95545C14.4335 -1.79138 13.8452 -1.20312 13.5289 -0.820078C13.1774 -0.394407 12.8881 0.11438 12.6467 0.614376C12.1594 1.62363 11.7102 2.93117 11.3012 4.33374C10.4771 7.16036 9.72365 10.7022 9.13337 13.804L13.0629 14.5518C13.6467 11.484 14.3719 8.09255 15.1414 5.45336C15.5292 4.12301 15.9055 3.06453 16.2488 2.35356C16.4227 1.99344 16.5499 1.80356 16.6132 1.72689C16.7118 1.60758 16.5366 1.88981 16.0498 1.97902L15.3288 -1.95545ZM6.41801 28.2709C6.41801 23.5526 8.61842 19.1418 12.4449 15.6565L9.75135 12.6993C5.24675 16.8023 2.41801 22.2342 2.41801 28.2709H6.41801ZM32.3884 48C17.5461 48 6.41801 38.7265 6.41801 28.2709H2.41801C2.41801 41.8167 16.3355 52 32.3884 52V48ZM58.3588 28.2709C58.3588 38.7265 47.2308 48 32.3884 48V52C48.4413 52 62.3588 41.8167 62.3588 28.2709H58.3588ZM52.1967 15.5343C56.1066 19.0382 58.3588 23.4977 58.3588 28.2709H62.3588C62.3588 22.1629 59.4632 16.6752 54.8663 12.5555L52.1967 15.5343ZM48.6052 1.97902C48.1211 1.89032 47.9453 1.61075 48.0407 1.72571C48.1019 1.79931 48.2271 1.98462 48.3991 2.33897C48.7388 3.03863 49.1119 4.08218 49.4972 5.39719C50.2615 8.00573 50.9831 11.364 51.567 14.4202L55.4959 13.6696C54.9055 10.5792 54.1553 7.06955 53.3358 4.2725C52.9292 2.88471 52.4824 1.59105 51.9974 0.592036C51.7571 0.0970504 51.4688 -0.407336 51.1181 -0.829681C50.8017 -1.21067 50.2157 -1.79243 49.3262 -1.95545L48.6052 1.97902ZM41.2103 8.71258C43.0812 6.81152 44.9838 4.98114 46.5617 3.6688C47.3564 3.00786 48.0149 2.52376 48.5117 2.22914C48.761 2.08131 48.9166 2.01321 48.9898 1.98799C49.0943 1.95197 48.9238 2.03743 48.6052 1.97902L49.3262 -1.95545C48.6699 -2.07573 48.0771 -1.92836 47.6864 -1.79369C47.2643 -1.64821 46.8516 -1.43683 46.4715 -1.21142C45.7095 -0.75955 44.8643 -0.122104 44.0039 0.593444C42.2718 2.03408 40.2592 3.97642 38.3594 5.90684L41.2103 8.71258ZM32.3884 8.54188C34.8098 8.54188 37.1505 8.79465 39.3692 9.26604L40.2005 5.35338C37.7072 4.82364 35.0878 4.54188 32.3884 4.54188V8.54188ZM25.3128 9.28633C27.5596 8.8019 29.9325 8.54188 32.3884 8.54188V4.54188C29.6505 4.54188 26.995 4.83172 24.4698 5.37619L25.3128 9.28633Z" fill="#392818" mask="url(#path-1-inside-1_9_165)"/>
<mask id="path-3-inside-2_9_165" fill="white">
<path d="M24.8913 7.33117C21.1146 3.49209 17.0425 -0.236269 15.6893 0.0117195C14.0555 0.311136 12.2722 8.00825 11.0981 14.1778C6.93261 17.972 4.41803 22.8933 4.41803 28.2709C4.41803 40.2715 16.9408 49.9999 32.3884 49.9999C47.836 49.9999 60.3588 40.2715 60.3588 28.2709C60.3588 22.8302 57.7849 17.8566 53.5315 14.0448C52.3572 7.8982 50.5878 0.308988 48.9657 0.0117195C47.615 -0.235805 43.5556 3.47815 39.7849 7.30963C37.4289 6.80906 34.9488 6.5418 32.3884 6.5418C29.7915 6.5418 27.2773 6.81673 24.8913 7.33117Z"/>
</mask>
<path d="M24.8913 7.33117L23.4656 8.73376L24.2372 9.51816L25.3129 9.28625L24.8913 7.33117ZM15.6893 0.0117195L15.3288 -1.95552L15.6893 0.0117195ZM11.0981 14.1778L12.4449 15.6564L12.9382 15.2071L13.0629 14.5517L11.0981 14.1778ZM53.5315 14.0448L51.567 14.4201L51.6938 15.0835L52.1967 15.5342L53.5315 14.0448ZM48.9657 0.0117195L48.6052 1.97896V1.97896L48.9657 0.0117195ZM39.7849 7.30963L39.3692 9.26596L40.4415 9.49377L41.2103 8.7125L39.7849 7.30963ZM26.3171 5.92859C24.4143 3.99439 22.3972 2.04662 20.6609 0.601557C19.7985 -0.116197 18.9514 -0.755602 18.1879 -1.20887C17.807 -1.43497 17.3937 -1.64697 16.9711 -1.79291C16.58 -1.92796 15.9862 -2.076 15.3288 -1.95552L16.0498 1.97896C15.7307 2.03744 15.5602 1.95166 15.6655 1.98804C15.7393 2.01352 15.8957 2.08211 16.1459 2.23066C16.6445 2.52668 17.3052 3.01281 18.1021 3.67603C19.6843 4.99293 21.5916 6.82887 23.4656 8.73376L26.3171 5.92859ZM15.3288 -1.95552C14.4335 -1.79144 13.8453 -1.20319 13.529 -0.820148C13.1774 -0.394478 12.8881 0.114308 12.6467 0.614302C12.1594 1.62355 11.7102 2.93109 11.3013 4.33365C10.4772 7.16027 9.72369 10.7021 9.13341 13.8039L13.0629 14.5517C13.6467 11.4839 14.3719 8.09246 15.1414 5.45327C15.5293 4.12293 15.9056 3.06445 16.2488 2.35348C16.4227 1.99337 16.5499 1.80349 16.6133 1.72682C16.7118 1.60751 16.5367 1.88974 16.0498 1.97896L15.3288 -1.95552ZM6.41803 28.2709C6.41803 23.5525 8.61845 19.1417 12.4449 15.6564L9.75139 12.6992C5.24678 16.8022 2.41803 22.2341 2.41803 28.2709H6.41803ZM32.3884 47.9999C17.5461 47.9999 6.41803 38.7264 6.41803 28.2709H2.41803C2.41803 41.8166 16.3355 51.9999 32.3884 51.9999V47.9999ZM58.3588 28.2709C58.3588 38.7264 47.2308 47.9999 32.3884 47.9999V51.9999C48.4413 51.9999 62.3588 41.8166 62.3588 28.2709H58.3588ZM52.1967 15.5342C56.1066 19.0381 58.3588 23.4976 58.3588 28.2709H62.3588C62.3588 22.1628 59.4633 16.6751 54.8663 12.5554L52.1967 15.5342ZM48.6052 1.97896C48.1212 1.89026 47.9453 1.61068 48.0408 1.72564C48.1019 1.79924 48.2271 1.98455 48.3991 2.3389C48.7388 3.03856 49.1119 4.0821 49.4972 5.39711C50.2615 8.00564 50.9831 11.364 51.567 14.4201L55.496 13.6695C54.9055 10.5791 54.1553 7.06946 53.3358 4.27242C52.9292 2.88463 52.4825 1.59097 51.9975 0.591964C51.7571 0.0969791 51.4688 -0.407406 51.1181 -0.829751C50.8017 -1.21074 50.2157 -1.7925 49.3262 -1.95552L48.6052 1.97896ZM41.2103 8.7125C43.0813 6.81144 44.9838 4.98107 46.5617 3.66873C47.3564 3.00779 48.0149 2.52369 48.5118 2.22907C48.7611 2.08124 48.9166 2.01314 48.9898 1.98792C49.0943 1.95191 48.9238 2.03736 48.6052 1.97896L49.3262 -1.95552C48.6699 -2.0758 48.0771 -1.92843 47.6864 -1.79376C47.2643 -1.64827 46.8517 -1.4369 46.4715 -1.21149C45.7095 -0.75962 44.8643 -0.122175 44.0039 0.59337C42.2718 2.034 40.2592 3.97634 38.3594 5.90676L41.2103 8.7125ZM32.3884 8.54179C34.8098 8.54179 37.1505 8.79456 39.3692 9.26596L40.2005 5.3533C37.7072 4.82355 35.0878 4.5418 32.3884 4.5418V8.54179ZM25.3129 9.28625C27.5596 8.80182 29.9325 8.54179 32.3884 8.54179V4.5418C29.6505 4.5418 26.995 4.83164 24.4698 5.3761L25.3129 9.28625Z" fill="#392818" mask="url(#path-3-inside-2_9_165)"/>
<path d="M55.1795 27.1155C58.5007 25.9277 59.0763 25.729 62.6327 25.0951" stroke="#392818" stroke-width="1.89" stroke-linecap="round" stroke-linejoin="round"/>
<path d="M54.4257 33.5231C57.8755 34.4581 59.4275 34.6488 62.7177 36.1615" stroke="#392818" stroke-width="1.89" stroke-linecap="round" stroke-linejoin="round"/>
<path d="M55.5565 30.5077C58.7329 30.3208 59.7879 30.6952 62.9599 31.0927" stroke="#392818" stroke-width="1.89" stroke-linecap="round" stroke-linejoin="round"/>
<path d="M9.28908 27.1155C5.96787 25.9277 5.39228 25.729 1.83588 25.0951" stroke="#392818" stroke-width="1.89" stroke-linecap="round" stroke-linejoin="round"/>
<path d="M10.0429 33.5231C6.59307 34.4581 5.04104 34.6488 1.75082 36.1615" stroke="#392818" stroke-width="1.89" stroke-linecap="round" stroke-linejoin="round"/>
<path d="M8.91218 30.5077C5.73572 30.3208 4.68071 30.6952 1.50868 31.0927" stroke="#392818" stroke-width="1.89" stroke-linecap="round" stroke-linejoin="round"/>
<path d="M34.8428 30.1715C34.8428 30.4214 34.6988 30.696 34.3678 30.9277C34.0383 31.1583 33.558 31.316 33.0049 31.316C32.4518 31.316 31.9715 31.1583 31.642 30.9277C31.311 30.696 31.167 30.4214 31.167 30.1715C31.167 29.9046 31.3289 29.5646 31.6746 29.2748C32.0126 28.9915 32.4841 28.796 33.0049 28.796C33.5257 28.796 33.9972 28.9915 34.3352 29.2748C34.6809 29.5646 34.8428 29.9046 34.8428 30.1715Z" fill="#392818" stroke="#392818" stroke-width="0.947369"/>
<path d="M33.0048 29.478V32.7143C33.0048 33.7356 32.1769 34.5636 31.1556 34.5636H30.5777C29.8755 34.5636 29.3063 33.9943 29.3063 33.2922V33.2922" stroke="#392818" stroke-width="1.42105" stroke-linecap="round" stroke-linejoin="round"/>
<path d="M33.0049 29.478V32.7143C33.0049 33.7356 33.8328 34.5636 34.8541 34.5636H35.432C36.1342 34.5636 36.7034 33.9943 36.7034 33.2922V33.2922" stroke="#392818" stroke-width="1.42105" stroke-linecap="round" stroke-linejoin="round"/>
<circle cx="33.9295" cy="29.4781" r="0.462321" fill="#E4B06A"/>
<path d="M22.9502 25.6203C22.9502 27.4351 21.6891 28.7803 20.2782 28.7803C18.8672 28.7803 17.6061 27.4351 17.6061 25.6203C17.6061 23.8055 18.8672 22.4603 20.2782 22.4603C21.6891 22.4603 22.9502 23.8055 22.9502 25.6203Z" fill="#392818" stroke="#392818"/>
<mask id="path-16-inside-3_9_165" fill="white">
<ellipse cx="19.5462" cy="24.4003" rx="0.97601" ry="0.97601"/>
</mask>
<ellipse cx="19.5462" cy="24.4003" rx="0.97601" ry="0.97601" fill="#E4B06A"/>
<path d="M19.5222 24.4003C19.5222 24.3988 19.5227 24.3949 19.5245 24.3906C19.526 24.387 19.5278 24.3847 19.5292 24.3833C19.5307 24.3819 19.533 24.3801 19.5366 24.3786C19.5408 24.3768 19.5447 24.3763 19.5462 24.3763V26.3763C20.6375 26.3763 21.5222 25.4916 21.5222 24.4003H19.5222ZM19.5462 24.3763C19.5477 24.3763 19.5516 24.3768 19.5558 24.3786C19.5594 24.3801 19.5617 24.3819 19.5632 24.3833C19.5646 24.3847 19.5664 24.387 19.5679 24.3906C19.5697 24.3949 19.5702 24.3988 19.5702 24.4003H17.5702C17.5702 25.4916 18.4549 26.3763 19.5462 26.3763V24.3763ZM19.5702 24.4003C19.5702 24.4017 19.5697 24.4056 19.5679 24.4099C19.5664 24.4135 19.5646 24.4158 19.5632 24.4172C19.5617 24.4187 19.5594 24.4204 19.5558 24.422C19.5516 24.4238 19.5477 24.4243 19.5462 24.4243V22.4243C18.4549 22.4243 17.5702 23.3089 17.5702 24.4003H19.5702ZM19.5462 24.4243C19.5447 24.4243 19.5408 24.4238 19.5366 24.422C19.533 24.4204 19.5307 24.4187 19.5292 24.4172C19.5278 24.4158 19.526 24.4135 19.5245 24.4099C19.5227 24.4056 19.5222 24.4017 19.5222 24.4003H21.5222C21.5222 23.3089 20.6375 22.4243 19.5462 22.4243V24.4243Z" fill="#392818" mask="url(#path-16-inside-3_9_165)"/>
<path d="M48.3265 25.6203C48.3265 27.4351 47.0654 28.7803 45.6545 28.7803C44.2435 28.7803 42.9824 27.4351 42.9824 25.6203C42.9824 23.8055 44.2435 22.4603 45.6545 22.4603C47.0654 22.4603 48.3265 23.8055 48.3265 25.6203Z" fill="#392818" stroke="#392818"/>
<mask id="path-19-inside-4_9_165" fill="white">
<ellipse cx="44.9224" cy="24.4003" rx="0.97601" ry="0.97601"/>
</mask>
<ellipse cx="44.9224" cy="24.4003" rx="0.97601" ry="0.97601" fill="#E4B06A"/>
<path d="M44.8984 24.4003C44.8984 24.3988 44.8989 24.3949 44.9007 24.3906C44.9022 24.387 44.904 24.3847 44.9055 24.3833C44.9069 24.3819 44.9092 24.3801 44.9128 24.3786C44.917 24.3768 44.921 24.3763 44.9224 24.3763V26.3763C46.0137 26.3763 46.8984 25.4916 46.8984 24.4003H44.8984ZM44.9224 24.3763C44.9239 24.3763 44.9278 24.3768 44.9321 24.3786C44.9357 24.3801 44.9379 24.3819 44.9394 24.3833C44.9408 24.3847 44.9426 24.387 44.9441 24.3906C44.9459 24.3949 44.9464 24.3988 44.9464 24.4003H42.9464C42.9464 25.4916 43.8311 26.3763 44.9224 26.3763V24.3763ZM44.9464 24.4003C44.9464 24.4017 44.9459 24.4056 44.9441 24.4099C44.9426 24.4135 44.9408 24.4158 44.9394 24.4172C44.9379 24.4187 44.9357 24.4204 44.9321 24.422C44.9278 24.4238 44.9239 24.4243 44.9224 24.4243V22.4243C43.8311 22.4243 42.9464 23.3089 42.9464 24.4003H44.9464ZM44.9224 24.4243C44.921 24.4243 44.917 24.4238 44.9128 24.422C44.9092 24.4204 44.9069 24.4187 44.9055 24.4172C44.904 24.4158 44.9022 24.4135 44.9007 24.4099C44.8989 24.4056 44.8984 24.4017 44.8984 24.4003H46.8984C46.8984 23.3089 46.0137 22.4243 44.9224 22.4243V24.4243Z" fill="#392818" mask="url(#path-19-inside-4_9_165)"/>
</svg>
