<svg width="61" height="51" viewBox="0 0 61 51" fill="none" xmlns="http://www.w3.org/2000/svg">
<mask id="path-1-inside-1_9_135" fill="white">
<path fill-rule="evenodd" clip-rule="evenodd" d="M2.88507 0.754986C7.65195 -1.83275 15.116 2.69704 20.8673 7.29677C23.743 5.97462 26.8592 5.21155 30.0649 5.21155C33.2573 5.21155 36.346 5.96829 39.1891 7.2803C44.9377 2.68624 52.3896 -1.82966 57.1508 0.754986C63.6103 4.26161 57.6881 19.8749 54.2542 27.597C54.3033 28.1418 54.3284 28.6858 54.3284 29.2274C54.3284 40.7134 43.0551 50.0247 30.0649 50.0247C17.0748 50.0247 5.55387 40.7134 5.55387 29.2274C5.55387 28.593 5.58901 27.9555 5.65761 27.317C2.20813 19.5038 -3.49735 4.21973 2.88507 0.754986Z"/>
</mask>
<path fill-rule="evenodd" clip-rule="evenodd" d="M2.88507 0.754986C7.65195 -1.83275 15.116 2.69704 20.8673 7.29677C23.743 5.97462 26.8592 5.21155 30.0649 5.21155C33.2573 5.21155 36.346 5.96829 39.1891 7.2803C44.9377 2.68624 52.3896 -1.82966 57.1508 0.754986C63.6103 4.26161 57.6881 19.8749 54.2542 27.597C54.3033 28.1418 54.3284 28.6858 54.3284 29.2274C54.3284 40.7134 43.0551 50.0247 30.0649 50.0247C17.0748 50.0247 5.55387 40.7134 5.55387 29.2274C5.55387 28.593 5.58901 27.9555 5.65761 27.317C2.20813 19.5038 -3.49735 4.21973 2.88507 0.754986Z" fill="white"/>
<path d="M20.8673 7.29677L19.6182 8.85868L20.5817 9.62933L21.7028 9.11391L20.8673 7.29677ZM2.88507 0.754986L1.93089 -1.00272L2.88507 0.754986ZM39.1891 7.2803L38.3511 9.09627L39.4728 9.61385L40.4377 8.84267L39.1891 7.2803ZM57.1508 0.754986L56.1966 2.51269L57.1508 0.754986ZM54.2542 27.597L52.4267 26.7843L52.2156 27.2591L52.2623 27.7766L54.2542 27.597ZM5.65761 27.317L7.64617 27.5306L7.70332 26.9987L7.48723 26.5092L5.65761 27.317ZM22.1165 5.73485C19.1858 3.39097 15.7221 0.983436 12.305 -0.503352C8.9733 -1.95295 5.1561 -2.75355 1.93089 -1.00272L3.83926 2.51269C5.38093 1.67578 7.6792 1.84621 10.7091 3.16451C13.6535 4.44561 16.7975 6.60284 19.6182 8.85868L22.1165 5.73485ZM30.0649 3.21155C26.5394 3.21155 23.1394 4.05086 20.0319 5.47962L21.7028 9.11391C24.3466 7.89838 27.1791 7.21155 30.0649 7.21155V3.21155ZM40.0271 5.46433C36.9497 4.04419 33.5764 3.21155 30.0649 3.21155V7.21155C32.9382 7.21155 35.7423 7.89238 38.3511 9.09627L40.0271 5.46433ZM58.105 -1.00272C54.8835 -2.75152 51.0715 -1.9547 47.7433 -0.508728C44.33 0.974192 40.8699 3.37683 37.9405 5.71793L40.4377 8.84267C43.2569 6.5897 46.397 4.43737 49.3372 3.15998C52.3624 1.84565 54.6569 1.67685 56.1966 2.51269L58.105 -1.00272ZM56.0817 28.4096C57.8139 24.5142 60.2239 18.5232 61.3707 13.0019C61.9417 10.253 62.2334 7.46857 61.8857 5.05711C61.5349 2.62341 60.4768 0.284859 58.105 -1.00272L56.1966 2.51269C57.0545 2.97842 57.6785 3.90652 57.9267 5.62787C58.178 7.37145 57.9857 9.63046 57.4543 12.1884C56.3965 17.281 54.1284 22.9577 52.4267 26.7843L56.0817 28.4096ZM56.3284 29.2274C56.3284 28.6241 56.3005 28.0202 56.2461 27.4173L52.2623 27.7766C52.3062 28.2635 52.3284 28.7475 52.3284 29.2274H56.3284ZM30.0649 52.0247C43.836 52.0247 56.3284 42.116 56.3284 29.2274H52.3284C52.3284 39.3109 42.2741 48.0247 30.0649 48.0247V52.0247ZM3.55387 29.2274C3.55387 42.1394 16.3217 52.0247 30.0649 52.0247V48.0247C17.8279 48.0247 7.55387 39.2875 7.55387 29.2274H3.55387ZM3.66905 27.1034C3.5931 27.8103 3.55387 28.5192 3.55387 29.2274H7.55387C7.55387 28.6669 7.58492 28.1007 7.64617 27.5306L3.66905 27.1034ZM1.93089 -1.00272C-0.411794 0.269023 -1.47384 2.56769 -1.83692 4.96929C-2.19629 7.34638 -1.92535 10.09 -1.3758 12.8024C-0.272147 18.2499 2.0878 24.1832 3.82799 28.1248L7.48723 26.5092C5.77794 22.6376 3.5604 17.0223 2.54455 12.0082C2.03435 9.48989 1.86003 7.27451 2.11814 5.56722C2.37255 3.88444 2.99073 2.97332 3.83926 2.51269L1.93089 -1.00272Z" fill="#392818" mask="url(#path-1-inside-1_9_135)"/>
<mask id="path-3-inside-2_9_135" fill="white">
<path fill-rule="evenodd" clip-rule="evenodd" d="M8.29616 38.6294C20.5019 38.3322 30.3125 27.4748 30.3125 14.1246C30.3125 10.9953 29.7735 8.00302 28.7909 5.25156C26.0346 5.42442 23.3605 6.15047 20.8673 7.29676C15.116 2.69704 7.65195 -1.83275 2.88507 0.754986C-3.49735 4.21973 2.20813 19.5038 5.65761 27.317C5.58902 27.9555 5.55387 28.593 5.55387 29.2274C5.55387 32.611 6.55362 35.8058 8.29616 38.6294Z"/>
</mask>
<path d="M8.29616 38.6294L6.59417 39.6798L7.19711 40.6568L8.34486 40.6289L8.29616 38.6294ZM28.7909 5.25156L30.6744 4.57895L30.1682 3.16126L28.6658 3.25548L28.7909 5.25156ZM20.8673 7.29676L19.6181 8.85868L20.5817 9.62932L21.7028 9.1139L20.8673 7.29676ZM2.88507 0.754986L3.83926 2.51269L2.88507 0.754986ZM5.65761 27.317L7.64617 27.5307L7.70332 26.9987L7.48724 26.5092L5.65761 27.317ZM28.3125 14.1246C28.3125 26.5428 19.2207 36.3628 8.24747 36.63L8.34486 40.6289C21.7832 40.3016 32.3125 28.4068 32.3125 14.1246H28.3125ZM26.9074 5.92417C27.8133 8.46092 28.3125 11.2258 28.3125 14.1246H32.3125C32.3125 10.7649 31.7337 7.54512 30.6744 4.57895L26.9074 5.92417ZM21.7028 9.1139C23.9949 8.06005 26.4292 7.40359 28.9161 7.24764L28.6658 3.25548C25.6399 3.44524 22.7261 4.24089 20.0319 5.47962L21.7028 9.1139ZM3.83926 2.51269C5.38093 1.67578 7.6792 1.84621 10.7091 3.16451C13.6535 4.44561 16.7975 6.60284 19.6181 8.85868L22.1165 5.73485C19.1858 3.39096 15.7221 0.983435 12.305 -0.503352C8.97329 -1.95295 5.1561 -2.75355 1.93089 -1.00272L3.83926 2.51269ZM7.48724 26.5092C5.77794 22.6376 3.56041 17.0223 2.54455 12.0082C2.03435 9.4899 1.86003 7.27451 2.11814 5.56722C2.37255 3.88444 2.99073 2.97332 3.83926 2.51269L1.93089 -1.00272C-0.411795 0.269023 -1.47384 2.56769 -1.83692 4.96929C-2.19629 7.34639 -1.92534 10.09 -1.3758 12.8024C-0.272144 18.2499 2.0878 24.1832 3.82799 28.1248L7.48724 26.5092ZM7.55387 29.2274C7.55387 28.6669 7.58493 28.1007 7.64617 27.5307L3.66906 27.1034C3.59311 27.8103 3.55387 28.5192 3.55387 29.2274H7.55387ZM9.99816 37.5791C8.43214 35.0415 7.55387 32.2066 7.55387 29.2274H3.55387C3.55387 33.0153 4.6751 36.5701 6.59417 39.6798L9.99816 37.5791Z" fill="#392818" mask="url(#path-3-inside-2_9_135)"/>
<mask id="path-5-inside-3_9_135" fill="white">
<path fill-rule="evenodd" clip-rule="evenodd" d="M32.7746 5.39244C35.0035 5.6897 37.1589 6.34343 39.1891 7.28029C44.9377 2.68624 52.3896 -1.82966 57.1508 0.754986C63.6103 4.2616 57.688 19.8749 54.2542 27.597C54.3033 28.1418 54.3284 28.6858 54.3284 29.2274C54.3284 32.5702 53.3736 35.7288 51.6995 38.5272C40.257 37.3578 31.3029 26.8788 31.3029 14.1246C31.3029 11.0487 31.8237 8.10506 32.7746 5.39244Z"/>
</mask>
<path d="M32.7746 5.39244L33.039 3.41L31.4256 3.19484L30.8872 4.73081L32.7746 5.39244ZM39.1891 7.28029L38.3511 9.09626L39.4727 9.61385L40.4377 8.84266L39.1891 7.28029ZM57.1508 0.754986L58.105 -1.00272L58.1049 -1.00272L57.1508 0.754986ZM54.2542 27.597L52.4267 26.7843L52.2156 27.2591L52.2623 27.7766L54.2542 27.597ZM51.6995 38.5272L51.4961 40.5168L52.7624 40.6463L53.4158 39.554L51.6995 38.5272ZM32.5102 7.37489C34.5254 7.64364 36.4881 8.23656 38.3511 9.09626L40.0271 5.46432C37.8297 4.4503 35.4817 3.73576 33.039 3.41L32.5102 7.37489ZM40.4377 8.84266C43.2569 6.5897 46.397 4.43736 49.3372 3.15998C52.3624 1.84565 54.6569 1.67685 56.1966 2.51269L58.1049 -1.00272C54.8835 -2.75152 51.0714 -1.9547 47.7432 -0.50873C44.33 0.974189 40.8699 3.37683 37.9405 5.71792L40.4377 8.84266ZM56.1966 2.51269C57.0545 2.97842 57.6785 3.90652 57.9267 5.62786C58.178 7.37144 57.9856 9.63045 57.4543 12.1884C56.3965 17.281 54.1284 22.9577 52.4267 26.7843L56.0816 28.4096C57.8139 24.5142 60.2238 18.5231 61.3707 13.0019C61.9417 10.253 62.2334 7.46856 61.8857 5.0571C61.5349 2.62341 60.4768 0.284858 58.105 -1.00272L56.1966 2.51269ZM52.2623 27.7766C52.3062 28.2635 52.3284 28.7475 52.3284 29.2274H56.3284C56.3284 28.6241 56.3005 28.0202 56.2461 27.4173L52.2623 27.7766ZM52.3284 29.2274C52.3284 32.18 51.4869 34.9868 49.9831 37.5005L53.4158 39.554C55.2603 36.4707 56.3284 32.9604 56.3284 29.2274H52.3284ZM51.9028 36.5376C41.6035 35.485 33.3029 25.9811 33.3029 14.1246H29.3029C29.3029 27.7766 38.9106 39.2306 51.4961 40.5168L51.9028 36.5376ZM33.3029 14.1246C33.3029 11.2752 33.7852 8.5552 34.662 6.05408L30.8872 4.73081C29.8621 7.65492 29.3029 10.8222 29.3029 14.1246H33.3029Z" fill="#392818" mask="url(#path-5-inside-3_9_135)"/>
<path d="M22.385 24.7708C22.385 26.5281 21.2839 27.737 20.1615 27.737C19.0391 27.737 17.938 26.5281 17.938 24.7708C17.938 23.0136 19.0391 21.8046 20.1615 21.8046C21.2839 21.8046 22.385 23.0136 22.385 24.7708Z" fill="#392818" stroke="#392818"/>
<mask id="path-8-inside-4_9_135" fill="white">
<ellipse cx="21.1519" cy="24.2757" rx="0.742759" ry="0.990346"/>
</mask>
<ellipse cx="21.1519" cy="24.2757" rx="0.742759" ry="0.990346" fill="white"/>
<path d="M20.8946 24.2757C20.8946 24.3537 20.8697 24.3859 20.8771 24.376C20.8821 24.3693 20.9033 24.3434 20.9498 24.3172C20.9991 24.2894 21.0693 24.266 21.1519 24.266V26.266C21.7423 26.266 22.2006 25.9446 22.4771 25.576C22.7533 25.2076 22.8946 24.7446 22.8946 24.2757H20.8946ZM21.1519 24.266C21.2344 24.266 21.3047 24.2894 21.354 24.3172C21.4005 24.3434 21.4216 24.3693 21.4267 24.376C21.4341 24.3859 21.4091 24.3537 21.4091 24.2757H19.4091C19.4091 24.7446 19.5504 25.2076 19.8267 25.576C20.1031 25.9446 20.5614 26.266 21.1519 26.266V24.266ZM21.4091 24.2757C21.4091 24.1977 21.4341 24.1655 21.4267 24.1754C21.4216 24.1821 21.4005 24.208 21.354 24.2342C21.3047 24.262 21.2344 24.2853 21.1519 24.2853V22.2853C20.5614 22.2853 20.1031 22.6068 19.8267 22.9754C19.5504 23.3437 19.4091 23.8068 19.4091 24.2757H21.4091ZM21.1519 24.2853C21.0693 24.2853 20.9991 24.262 20.9498 24.2342C20.9033 24.208 20.8821 24.1821 20.8771 24.1754C20.8697 24.1655 20.8946 24.1977 20.8946 24.2757H22.8946C22.8946 23.8068 22.7533 23.3437 22.4771 22.9754C22.2006 22.6068 21.7423 22.2853 21.1519 22.2853V24.2853Z" fill="#392818" mask="url(#path-8-inside-4_9_135)"/>
<path d="M38.7353 24.7708C38.7353 26.5281 39.8364 27.737 40.9588 27.737C42.0812 27.737 43.1823 26.5281 43.1823 24.7708C43.1823 23.0136 42.0812 21.8046 40.9588 21.8046C39.8364 21.8046 38.7353 23.0136 38.7353 24.7708Z" fill="#392818" stroke="#392818"/>
<mask id="path-11-inside-5_9_135" fill="white">
<ellipse cx="0.742759" cy="0.990346" rx="0.742759" ry="0.990346" transform="matrix(-1 0 0 1 40.7112 23.2853)"/>
</mask>
<ellipse cx="0.742759" cy="0.990346" rx="0.742759" ry="0.990346" transform="matrix(-1 0 0 1 40.7112 23.2853)" fill="white"/>
<path d="M40.2257 24.2757C40.2257 24.3537 40.2507 24.3859 40.2433 24.376C40.2383 24.3693 40.2171 24.3434 40.1706 24.3172C40.1213 24.2894 40.051 24.266 39.9685 24.266V26.266C39.378 26.266 38.9198 25.9446 38.6433 25.576C38.367 25.2076 38.2257 24.7446 38.2257 24.2757H40.2257ZM39.9685 24.266C39.8859 24.266 39.8157 24.2894 39.7664 24.3172C39.7199 24.3434 39.6987 24.3693 39.6937 24.376C39.6863 24.3859 39.7112 24.3537 39.7112 24.2757H41.7112C41.7112 24.7446 41.5699 25.2076 41.2937 25.576C41.0172 25.9446 40.5589 26.266 39.9685 26.266V24.266ZM39.7112 24.2757C39.7112 24.1977 39.6863 24.1655 39.6937 24.1754C39.6987 24.1821 39.7199 24.208 39.7664 24.2342C39.8157 24.262 39.8859 24.2853 39.9685 24.2853V22.2853C40.5589 22.2853 41.0172 22.6068 41.2937 22.9754C41.5699 23.3437 41.7112 23.8068 41.7112 24.2757H39.7112ZM39.9685 24.2853C40.051 24.2853 40.1213 24.262 40.1706 24.2342C40.2171 24.208 40.2383 24.1821 40.2433 24.1754C40.2507 24.1655 40.2257 24.1977 40.2257 24.2757H38.2257C38.2257 23.8068 38.367 23.3437 38.6433 22.9754C38.9198 22.6068 39.378 22.2853 39.9685 22.2853V24.2853Z" fill="#392818" mask="url(#path-11-inside-5_9_135)"/>
<path d="M33.7739 31.4557C33.7739 31.6429 33.6092 31.9469 33.0351 32.234C32.4909 32.5061 31.7041 32.6888 30.8077 32.6888C29.9113 32.6888 29.1245 32.5061 28.5803 32.234C28.0062 31.9469 27.8415 31.6429 27.8415 31.4557C27.8415 31.2224 28.0643 30.7961 28.6427 30.3927C29.1909 30.0105 29.9586 29.7274 30.8077 29.7274C31.6568 29.7274 32.4245 30.0105 32.9727 30.3927C33.5511 30.7961 33.7739 31.2224 33.7739 31.4557Z" fill="#392818" stroke="#392818"/>
<circle cx="32.2932" cy="30.7129" r="0.495173" fill="white"/>
<path d="M30.8077 30.713V33.684C30.8077 34.7779 29.9209 35.6647 28.827 35.6647H28.0842C27.4006 35.6647 26.8463 35.1104 26.8463 34.4267V34.4267" stroke="#392818" stroke-width="2" stroke-linecap="round" stroke-linejoin="round"/>
<path d="M30.8077 30.713V33.684C30.8077 34.7779 31.6945 35.6647 32.7884 35.6647H33.5312C34.2149 35.6647 34.7691 35.1104 34.7691 34.4267V34.4267" stroke="#392818" stroke-width="2" stroke-linecap="round" stroke-linejoin="round"/>
</svg>
